<svg xmlns="http://www.w3.org/2000/svg" viewBox="0 0 800 1000" role="img">
  <rect width="800" height="1000" fill="#ECE5D4"/>
  <path d="M330,205 L250,228 L118,392 L162,452 L253,398 L246,862 Q246,872 256,872 L544,872 Q554,872 554,862 L547,398 L638,452 L682,392 L550,228 L470,205 Q400,262 330,205 Z" fill="#F0EAD9" stroke="#E2DAC4" stroke-width="3"/>
  <path d="M253,398 L246,862" stroke="#E2DAC4" stroke-width="2" fill="none"/>
  <path d="M547,398 L554,862" stroke="#E2DAC4" stroke-width="2" fill="none"/>
  <path d="M330,205 Q400,262 470,205 Q472,196 464,194 Q400,246 336,194 Q328,196 330,205 Z" fill="#E2DAC4"/>
  
  <defs><path id="arc" d="M212,492 Q400,380 588,492" fill="none"/></defs>
  <text font-family="Helvetica, Arial, sans-serif" font-size="30" font-weight="bold" letter-spacing="3" fill="#1F3D2B">
    <textPath href="#arc" startOffset="50%" text-anchor="middle">RATHER BE PLAYING</textPath>
  </text>
  <g stroke="#1F3D2B" fill="none" stroke-width="6.4799999999999995">
  <g transform="rotate(-24 400 641.2)">
    <ellipse cx="400" cy="567.04" rx="27.36" ry="36.0"/>
    <line x1="400" y1="603.04" x2="400" y2="641.2" stroke-linecap="round"/>
  </g>
  <g transform="rotate(24 400 641.2)">
    <ellipse cx="400" cy="567.04" rx="27.36" ry="36.0"/>
    <line x1="400" y1="603.04" x2="400" y2="641.2" stroke-linecap="round"/>
  </g>
  <circle cx="400" cy="500.8" r="11.52" fill="#1F3D2B" stroke="none"/>
</g>
  <text x="400" y="700" font-family="Helvetica, Arial, sans-serif" font-size="20" letter-spacing="5"
        text-anchor="middle" fill="#B8893E">COURT &amp; CLOVER</text>

  

  <g stroke="#B8893E" stroke-width="3" fill="none">
    <line x1="246" y1="930" x2="554" y2="930"/>
    <line x1="246" y1="918" x2="246" y2="942"/>
    <line x1="554" y1="918" x2="554" y2="942"/>
    <line x1="620" y1="228" x2="620" y2="872"/>
    <line x1="608" y1="228" x2="632" y2="228"/>
    <line x1="608" y1="872" x2="632" y2="872"/>
  </g>
  <text x="400" y="975" font-family="Helvetica, Arial, sans-serif" font-size="26" letter-spacing="3"
        text-anchor="middle" fill="#222019">20 in wide (size M)</text>
  <text x="660" y="556" font-family="Helvetica, Arial, sans-serif" font-size="26" letter-spacing="3"
        fill="#222019" transform="rotate(90 660 556)" text-anchor="middle">28 in long</text>
</svg>
