<svg xmlns="http://www.w3.org/2000/svg" viewBox="0 0 800 1000" role="img">
  <rect width="800" height="1000" fill="#ECE5D4"/>
  <path d="M330,205 L250,228 L118,392 L162,452 L253,398 L246,862 Q246,872 256,872 L544,872 Q554,872 554,862 L547,398 L638,452 L682,392 L550,228 L470,205 Q400,262 330,205 Z" fill="#F0EAD9" stroke="#E2DAC4" stroke-width="3"/>
  <path d="M253,398 L246,862" stroke="#E2DAC4" stroke-width="2" fill="none"/>
  <path d="M547,398 L554,862" stroke="#E2DAC4" stroke-width="2" fill="none"/>
  <path d="M330,205 Q400,262 470,205 Q472,196 464,194 Q400,246 336,194 Q328,196 330,205 Z" fill="#E2DAC4"/>
  
  <text x="400" y="510" font-family="Georgia, 'Times New Roman', serif" font-size="110" font-weight="bold"
        text-anchor="middle" fill="#1F3D2B">Dink</text>
  <text x="400" y="565" font-family="Helvetica, Arial, sans-serif" font-size="30" letter-spacing="10"
        text-anchor="middle" fill="#1F3D2B">RESPONSIBLY</text>
  <g fill="#B8893E"><circle cx="385.7" cy="625.7" r="16.12"/><circle cx="414.3" cy="625.7" r="16.12"/><circle cx="385.7" cy="654.3" r="16.12"/><circle cx="414.3" cy="654.3" r="16.12"/><rect x="397.66" y="640" width="4.68" height="44.199999999999996" rx="2.34" transform="rotate(18 400 640)"/></g>

  
</svg>
