<svg xmlns="http://www.w3.org/2000/svg" viewBox="0 0 800 1000" role="img">
  <rect width="800" height="1000" fill="#ECE5D4"/>
  <path d="M330,205 L250,228 L118,392 L162,452 L253,398 L246,862 Q246,872 256,872 L544,872 Q554,872 554,862 L547,398 L638,452 L682,392 L550,228 L470,205 Q400,262 330,205 Z" fill="#C4CEB5" stroke="#B2BEA0" stroke-width="3"/>
  <path d="M253,398 L246,862" stroke="#B2BEA0" stroke-width="2" fill="none"/>
  <path d="M547,398 L554,862" stroke="#B2BEA0" stroke-width="2" fill="none"/>
  <path d="M330,205 Q400,262 470,205 Q472,196 464,194 Q400,246 336,194 Q328,196 330,205 Z" fill="#B2BEA0"/>
  
  <text x="400" y="470" font-family="Helvetica, Arial, sans-serif" font-size="26" font-weight="bold" letter-spacing="7"
        text-anchor="middle" fill="#1F3D2B">STAY OUT OF</text>
  <text x="400" y="560" font-family="Georgia, 'Times New Roman', serif" font-size="82" font-style="italic"
        text-anchor="middle" fill="#1F3D2B">the kitchen</text>
  <line x1="320" y1="596" x2="480" y2="596" stroke="#B8893E" stroke-width="3"/>
  <text x="400" y="640" font-family="Helvetica, Arial, sans-serif" font-size="19" letter-spacing="4"
        text-anchor="middle" fill="#1F3D2B">A PICKLEBALL HOUSE RULE</text>

  
</svg>
