<svg xmlns="http://www.w3.org/2000/svg" viewBox="180 360 448 560" role="img">
  <rect width="800" height="1000" fill="#ECE5D4"/>
  <path d="M330,205 L250,228 L118,392 L162,452 L253,398 L246,862 Q246,872 256,872 L544,872 Q554,872 554,862 L547,398 L638,452 L682,392 L550,228 L470,205 Q400,262 330,205 Z" fill="#F0EAD9" stroke="#E2DAC4" stroke-width="3"/>
  <path d="M253,398 L246,862" stroke="#E2DAC4" stroke-width="2" fill="none"/>
  <path d="M547,398 L554,862" stroke="#E2DAC4" stroke-width="2" fill="none"/>
  <path d="M330,205 Q400,262 470,205 Q472,196 464,194 Q400,246 336,194 Q328,196 330,205 Z" fill="#E2DAC4"/>
  
  <defs><path id="arc" d="M212,492 Q400,380 588,492" fill="none"/></defs>
  <text font-family="Helvetica, Arial, sans-serif" font-size="30" font-weight="bold" letter-spacing="3" fill="#1F3D2B">
    <textPath href="#arc" startOffset="50%" text-anchor="middle">RATHER BE PLAYING</textPath>
  </text>
  <g stroke="#1F3D2B" fill="none" stroke-width="6.4799999999999995">
  <g transform="rotate(-24 400 641.2)">
    <ellipse cx="400" cy="567.04" rx="27.36" ry="36.0"/>
    <line x1="400" y1="603.04" x2="400" y2="641.2" stroke-linecap="round"/>
  </g>
  <g transform="rotate(24 400 641.2)">
    <ellipse cx="400" cy="567.04" rx="27.36" ry="36.0"/>
    <line x1="400" y1="603.04" x2="400" y2="641.2" stroke-linecap="round"/>
  </g>
  <circle cx="400" cy="500.8" r="11.52" fill="#1F3D2B" stroke="none"/>
</g>
  <text x="400" y="700" font-family="Helvetica, Arial, sans-serif" font-size="20" letter-spacing="5"
        text-anchor="middle" fill="#B8893E">COURT &amp; CLOVER</text>

  <line x1="-400" y1="0" x2="-100" y2="1000" stroke="#222019" stroke-opacity="0.04" stroke-width="6"/><line x1="-360" y1="0" x2="-60" y2="1000" stroke="#222019" stroke-opacity="0.04" stroke-width="6"/><line x1="-320" y1="0" x2="-20" y2="1000" stroke="#222019" stroke-opacity="0.04" stroke-width="6"/><line x1="-280" y1="0" x2="20" y2="1000" stroke="#222019" stroke-opacity="0.04" stroke-width="6"/><line x1="-240" y1="0" x2="60" y2="1000" stroke="#222019" stroke-opacity="0.04" stroke-width="6"/><line x1="-200" y1="0" x2="100" y2="1000" stroke="#222019" stroke-opacity="0.04" stroke-width="6"/><line x1="-160" y1="0" x2="140" y2="1000" stroke="#222019" stroke-opacity="0.04" stroke-width="6"/><line x1="-120" y1="0" x2="180" y2="1000" stroke="#222019" stroke-opacity="0.04" stroke-width="6"/><line x1="-80" y1="0" x2="220" y2="1000" stroke="#222019" stroke-opacity="0.04" stroke-width="6"/><line x1="-40" y1="0" x2="260" y2="1000" stroke="#222019" stroke-opacity="0.04" stroke-width="6"/><line x1="0" y1="0" x2="300" y2="1000" stroke="#222019" stroke-opacity="0.04" stroke-width="6"/><line x1="40" y1="0" x2="340" y2="1000" stroke="#222019" stroke-opacity="0.04" stroke-width="6"/><line x1="80" y1="0" x2="380" y2="1000" stroke="#222019" stroke-opacity="0.04" stroke-width="6"/><line x1="120" y1="0" x2="420" y2="1000" stroke="#222019" stroke-opacity="0.04" stroke-width="6"/><line x1="160" y1="0" x2="460" y2="1000" stroke="#222019" stroke-opacity="0.04" stroke-width="6"/><line x1="200" y1="0" x2="500" y2="1000" stroke="#222019" stroke-opacity="0.04" stroke-width="6"/><line x1="240" y1="0" x2="540" y2="1000" stroke="#222019" stroke-opacity="0.04" stroke-width="6"/><line x1="280" y1="0" x2="580" y2="1000" stroke="#222019" stroke-opacity="0.04" stroke-width="6"/><line x1="320" y1="0" x2="620" y2="1000" stroke="#222019" stroke-opacity="0.04" stroke-width="6"/><line x1="360" y1="0" x2="660" y2="1000" stroke="#222019" stroke-opacity="0.04" stroke-width="6"/><line x1="400" y1="0" x2="700" y2="1000" stroke="#222019" stroke-opacity="0.04" stroke-width="6"/><line x1="440" y1="0" x2="740" y2="1000" stroke="#222019" stroke-opacity="0.04" stroke-width="6"/><line x1="480" y1="0" x2="780" y2="1000" stroke="#222019" stroke-opacity="0.04" stroke-width="6"/><line x1="520" y1="0" x2="820" y2="1000" stroke="#222019" stroke-opacity="0.04" stroke-width="6"/><line x1="560" y1="0" x2="860" y2="1000" stroke="#222019" stroke-opacity="0.04" stroke-width="6"/><line x1="600" y1="0" x2="900" y2="1000" stroke="#222019" stroke-opacity="0.04" stroke-width="6"/><line x1="640" y1="0" x2="940" y2="1000" stroke="#222019" stroke-opacity="0.04" stroke-width="6"/><line x1="680" y1="0" x2="980" y2="1000" stroke="#222019" stroke-opacity="0.04" stroke-width="6"/><line x1="720" y1="0" x2="1020" y2="1000" stroke="#222019" stroke-opacity="0.04" stroke-width="6"/><line x1="760" y1="0" x2="1060" y2="1000" stroke="#222019" stroke-opacity="0.04" stroke-width="6"/><line x1="800" y1="0" x2="1100" y2="1000" stroke="#222019" stroke-opacity="0.04" stroke-width="6"/><line x1="840" y1="0" x2="1140" y2="1000" stroke="#222019" stroke-opacity="0.04" stroke-width="6"/><line x1="880" y1="0" x2="1180" y2="1000" stroke="#222019" stroke-opacity="0.04" stroke-width="6"/><line x1="920" y1="0" x2="1220" y2="1000" stroke="#222019" stroke-opacity="0.04" stroke-width="6"/><line x1="960" y1="0" x2="1260" y2="1000" stroke="#222019" stroke-opacity="0.04" stroke-width="6"/><line x1="1000" y1="0" x2="1300" y2="1000" stroke="#222019" stroke-opacity="0.04" stroke-width="6"/><line x1="1040" y1="0" x2="1340" y2="1000" stroke="#222019" stroke-opacity="0.04" stroke-width="6"/><line x1="1080" y1="0" x2="1380" y2="1000" stroke="#222019" stroke-opacity="0.04" stroke-width="6"/><line x1="1120" y1="0" x2="1420" y2="1000" stroke="#222019" stroke-opacity="0.04" stroke-width="6"/><line x1="1160" y1="0" x2="1460" y2="1000" stroke="#222019" stroke-opacity="0.04" stroke-width="6"/>
</svg>
